<?xml version="1.0" encoding="UTF-8" standalone="no"?>
<svg
   version="1.1"
   width="90.929314"
   height="89.5625"
   id="svg2"
   inkscape:version="1.1.1 (c3084ef, 2021-09-22)"
   sodipodi:docname="LogRowStep.svg"
   xmlns:inkscape="http://www.inkscape.org/namespaces/inkscape"
   xmlns:sodipodi="http://sodipodi.sourceforge.net/DTD/sodipodi-0.dtd"
   xmlns="http://www.w3.org/2000/svg"
   xmlns:svg="http://www.w3.org/2000/svg"
   xmlns:rdf="http://www.w3.org/1999/02/22-rdf-syntax-ns#"
   xmlns:cc="http://creativecommons.org/ns#"
   xmlns:dc="http://purl.org/dc/elements/1.1/">
  <sodipodi:namedview
     pagecolor="#ffffff"
     bordercolor="#666666"
     borderopacity="1"
     objecttolerance="10"
     gridtolerance="10"
     guidetolerance="10"
     inkscape:pageopacity="0"
     inkscape:pageshadow="2"
     inkscape:window-width="1920"
     inkscape:window-height="1027"
     id="namedview13"
     showgrid="false"
     fit-margin-top="0"
     fit-margin-left="0"
     fit-margin-right="0"
     fit-margin-bottom="0"
     inkscape:zoom="10.148731"
     inkscape:cx="28.476467"
     inkscape:cy="46.754614"
     inkscape:window-x="1680"
     inkscape:window-y="25"
     inkscape:window-maximized="1"
     inkscape:current-layer="layer1"
     inkscape:document-rotation="0"
     inkscape:pagecheckerboard="0" />
  <defs
     id="defs4">
    <clipPath
       id="clipPath3020">
      <path
         d="m 0,0 1507,0 0,888.648 -1507,0 L 0,0 z"
         id="path3022"
         inkscape:connector-curvature="0" />
    </clipPath>
  </defs>
  <metadata
     id="metadata7">
    <rdf:RDF>
      <cc:Work
         rdf:about="">
        <dc:format>image/svg+xml</dc:format>
        <dc:type
           rdf:resource="http://purl.org/dc/dcmitype/StillImage" />
        <dc:title />
      </cc:Work>
    </rdf:RDF>
  </metadata>
  <ellipse
     style="fill:none;fill-rule:evenodd;stroke:#f60000;stroke-opacity:1"
     id="path58"
     cx="45.464657"
     cy="44.781254"
     rx="37.837242"
     ry="37.738708" />
  <g
     id="layer1"
     transform="translate(-304.86728,-220.21538)">
    <path
       style="fill:none;stroke:#000000;stroke-width:1px;stroke-linecap:butt;stroke-linejoin:miter;stroke-opacity:1"
       d="m 336.98952,243.17392 c 3.12026,0.91965 6.51478,1.1835 9.36078,2.75896 1.35023,0.74745 1.79953,4.47631 2.16776,6.0106 0.0316,0.13169 0.072,0.26135 0.0985,0.39414 0.006,0.0322 -0.0328,0.0985 0,0.0985 0.0328,0 0,-0.13138 0,-0.0985 0,0.16423 -0.0861,0.63254 0,0.49267 1.78657,-2.90317 1.26644,-3.61967 4.03991,-6.0106 0.96537,-0.83221 3.09974,-2.08052 4.63112,-2.46336 2.07456,-0.51864 0.86562,0.0599 1.57655,-0.2956"
       id="path260" />
    <path
       style="fill:none;stroke:#000000;stroke-width:1px;stroke-linecap:butt;stroke-linejoin:miter;stroke-opacity:1"
       d="m 348.41952,252.63323 c -1.80646,0.45982 -3.68077,0.70721 -5.41939,1.37948 -0.76587,0.29613 -1.35698,0.93249 -1.97069,1.47802 -3.33336,2.96298 -5.17019,7.23342 -4.63112,11.7256 0.43823,3.65196 1.47644,3.90281 2.95603,7.29155 1.85186,4.24135 0.25792,3.15268 3.25164,7.88276 1.16931,1.84752 2.08651,2.57672 3.4487,3.74431"
       id="path264" />
    <path
       style="fill:none;stroke:#000000;stroke-width:1px;stroke-linecap:butt;stroke-linejoin:miter;stroke-opacity:1"
       d="m 348.41952,252.63323 c 14.07155,3.48778 7.9771,20.68771 5.32086,27.88526 -0.50848,1.37783 -4.6625,4.38755 -6.10913,5.32086 -1.16337,0.75056 -1.38341,1.2613 -1.57656,0.2956"
       id="path266" />
    <path
       style="fill:none;stroke:#000000;stroke-width:1px;stroke-linecap:butt;stroke-linejoin:miter;stroke-opacity:1"
       d="m 338.36901,258.54529 c -1.2246,-0.33751 -2.31519,-1.07687 -3.54725,-1.37948 -2.78504,-0.68405 -6.17396,-0.67636 -8.76957,0.68974 -1.32981,0.6999 -1.18241,0.88716 -1.18241,1.87216"
       id="path307" />
    <path
       style="fill:none;stroke:#000000;stroke-width:1px;stroke-linecap:butt;stroke-linejoin:miter;stroke-opacity:1"
       d="m 337.38366,271.05917 c -2.4305,-2.66825 -5.88254,-3.01894 -9.26224,-2.75896 -1.29505,0.0996 -0.99443,-0.01 -1.97069,0.2956 -1.00182,0.31307 -1.49045,0.65721 -1.87216,1.67509 -0.17641,0.47044 -0.2956,1.98045 -0.2956,1.47802"
       id="path311" />
    <path
       style="fill:none;stroke:#000000;stroke-width:1px;stroke-linecap:butt;stroke-linejoin:miter;stroke-opacity:1"
       d="m 340.33969,277.16831 c -7.02797,-2.03709 -5.20074,-1.97979 -11.23293,-2.36482 -0.0733,-0.005 -0.12436,0.0881 -0.19707,0.0985 -0.16257,0.0232 -0.33109,-0.0294 -0.49267,0 -0.90605,0.16473 -1.41508,0.70988 -1.67508,1.57655 -0.25904,0.86344 -0.27511,1.53951 0,2.36483"
       id="path313" />
    <path
       style="fill:none;stroke:#000000;stroke-width:1px;stroke-linecap:butt;stroke-linejoin:miter;stroke-opacity:1"
       d="m 355.90814,257.85555 c 5.236,-1.59742 4.92729,-2.12134 9.65638,-1.77362 0.96396,0.0709 1.96008,0.13371 2.8575,0.49268 0.47441,0.18976 0.78079,0.67254 1.08388,1.08388 0.6035,0.81902 -0.0197,0.78827 0.39414,0.78827"
       id="path317" />
    <path
       style="fill:none;stroke:#000000;stroke-width:1px;stroke-linecap:butt;stroke-linejoin:miter;stroke-opacity:1"
       d="m 357.18909,266.92073 c 10.37151,0.726 8.81226,-2.43382 10.34612,2.16775"
       id="path319" />
    <path
       style="fill:none;stroke:#000000;stroke-width:1px;stroke-linecap:butt;stroke-linejoin:miter;stroke-opacity:1"
       d="m 355.2184,276.18297 c 4.09633,-1.02408 2.76355,-0.96167 10.05052,1.87215 0.38721,0.15059 0.26276,0.78828 0.39414,1.18242"
       id="path321" />
    <path
       style="fill:none;stroke:#000000;stroke-width:1px;stroke-linecap:butt;stroke-linejoin:miter;stroke-opacity:1"
       d="m 347.53271,256.279 c -0.31949,8.18611 0.29561,16.35382 0.29561,24.53509"
       id="path323" />
    <path
       style="fill:none;stroke:#000000;stroke-width:1px;stroke-linecap:butt;stroke-linejoin:miter;stroke-opacity:1"
       d="m 342.40892,262.19107 c 3.33562,-1.55254 6.34588,-3.70463 9.95198,-0.0985"
       id="path325" />
    <path
       style="fill:none;stroke:#000000;stroke-width:1px;stroke-linecap:butt;stroke-linejoin:miter;stroke-opacity:1"
       d="m 343.59133,269.18702 c 0.9525,-0.52552 1.83396,-1.20808 2.8575,-1.57655 0.65191,-0.23469 1.37662,-0.21579 2.06923,-0.19707 1.64813,0.0445 2.30394,0.6665 2.95603,1.97069"
       id="path329" />
    <path
       style="fill:none;stroke:#000000;stroke-width:1px;stroke-linecap:butt;stroke-linejoin:miter;stroke-opacity:1"
       d="m 344.77375,275.9859 c 3.92772,-1.17832 2.05676,-1.38641 5.61646,0.59121"
       id="path331" />
    <path
       style="fill:none;stroke:#000000;stroke-width:1px;stroke-linecap:butt;stroke-linejoin:miter;stroke-opacity:1"
       d="m 345.16788,286.43056 c 0.29561,-0.0985 0.59121,-0.19711 0.88681,-0.29561 0.77257,0.71314 1.30325,1.22402 2.06923,1.87216 0.18081,0.15299 0.59121,0.63098 0.59121,0.39413 0,-0.0328 -0.0657,0 -0.0985,0"
       id="path333" />
    <path
       style="fill:none;stroke:#000000;stroke-width:1px;stroke-linecap:butt;stroke-linejoin:miter;stroke-opacity:1"
       d="m 346.05469,286.13495 c -1.05103,0.55836 -2.10207,1.11672 -3.1531,1.67509"
       id="path335" />
  </g>
</svg>
